<?xml version="1.0" standalone="no"?>
<!DOCTYPE svg PUBLIC "-//W3C//DTD SVG 20010904//EN"
 "http://www.w3.org/TR/2001/REC-SVG-20010904/DTD/svg10.dtd">
<svg version="1.0" xmlns="http://www.w3.org/2000/svg"
 width="225.000000pt" height="224.000000pt" viewBox="0 0 225.000000 224.000000"
 preserveAspectRatio="xMidYMid meet">

<g transform="translate(0.000000,224.000000) scale(0.100000,-0.100000)"
fill="#000000" stroke="none">
<path d="M1016 2174 c-3 -26 -6 -59 -6 -74 0 -31 -32 -50 -85 -50 -40 0 -59
17 -75 65 -6 19 -16 35 -21 35 -6 0 -7 5 -4 10 9 15 -23 12 -90 -9 -55 -18
-60 -21 -59 -47 1 -16 8 -53 16 -82 l15 -53 -36 -25 c-50 -34 -76 -31 -116 14
-19 20 -35 39 -35 42 0 3 -4 11 -9 19 -9 14 -14 11 -91 -56 -21 -18 -43 -33
-49 -33 -6 0 -11 -4 -11 -10 0 -5 4 -10 9 -10 4 0 25 -21 44 -46 29 -36 35
-53 31 -73 -10 -38 -44 -71 -75 -71 -33 0 -91 24 -115 47 -10 10 -19 13 -21 7
-2 -5 -21 -37 -43 -69 -22 -33 -40 -66 -40 -73 0 -7 11 -17 26 -22 33 -13 84
-69 84 -93 0 -21 -17 -55 -36 -74 -16 -16 -106 -17 -122 -1 -20 20 -39 -10
-54 -89 l-14 -72 48 -12 c55 -13 108 -52 108 -78 0 -9 -9 -36 -20 -58 -19 -40
-22 -41 -80 -48 l-60 -7 0 -61 c0 -105 1 -106 82 -104 62 1 73 -2 89 -22 20
-24 25 -76 10 -99 -4 -7 -32 -24 -61 -38 -42 -19 -51 -27 -45 -42 4 -9 13 -30
19 -47 20 -51 46 -95 57 -95 5 0 28 9 50 21 53 27 99 22 118 -12 20 -35 7 -75
-37 -119 -41 -40 -44 -33 33 -114 l45 -49 23 21 c13 12 29 22 35 22 6 0 19 11
28 25 22 33 58 32 89 -2 30 -34 31 -53 5 -122 -12 -29 -20 -54 -18 -56 26 -18
128 -75 134 -74 11 0 74 94 74 109 0 16 44 22 75 10 40 -15 54 -38 55 -87 0
-23 5 -44 13 -46 10 -4 10 -6 0 -6 -7 -1 -13 -10 -13 -21 0 -15 7 -20 25 -20
14 0 25 -5 25 -11 0 -6 16 -9 38 -8 21 2 44 -1 51 -6 20 -12 37 16 45 70 10
75 19 85 80 85 67 0 83 -17 92 -93 6 -47 10 -57 25 -57 11 0 19 5 19 10 0 6 9
10 20 10 10 0 41 5 68 10 l48 11 -7 62 c-10 83 3 109 59 121 55 12 81 -2 112
-60 14 -24 27 -44 29 -44 12 0 91 52 91 60 0 6 6 10 13 10 6 0 22 8 35 18 23
18 23 18 5 58 -10 21 -22 42 -28 46 -6 5 -6 8 0 8 5 0 4 5 -3 12 -19 19 -14
37 16 63 36 32 85 32 140 0 l44 -25 25 20 c14 11 23 20 19 20 -3 0 10 21 29
46 33 42 34 48 20 64 -8 9 -15 20 -15 23 0 12 -34 47 -47 47 -16 0 -26 35 -17
62 4 13 16 36 28 51 20 27 24 29 71 23 28 -3 60 -9 72 -12 18 -5 23 -1 29 22
4 16 13 38 19 49 20 32 27 91 13 102 -7 6 -35 18 -63 28 -66 24 -70 28 -67 78
4 51 26 73 85 82 77 12 77 12 76 63 0 26 -4 67 -7 92 l-7 45 -80 10 -80 10
-14 52 c-18 70 -10 92 49 132 47 32 50 36 44 65 -3 16 -23 56 -43 88 -39 63
-39 63 -115 27 -22 -11 -45 -19 -50 -19 -6 0 -30 18 -54 40 -48 46 -57 91 -22
110 11 6 20 17 20 25 0 8 9 20 20 27 11 7 20 17 19 23 -1 14 -126 115 -143
115 -7 0 -34 -20 -59 -45 -26 -25 -54 -45 -64 -45 -20 0 -61 25 -80 50 -15 19
-17 60 -2 60 5 0 9 8 8 18 -1 9 3 30 9 45 7 16 12 30 12 31 0 5 -112 44 -146
51 -29 6 -31 4 -57 -54 -29 -65 -47 -77 -100 -66 -51 11 -57 21 -57 96 l0 69
-94 0 -93 0 -7 -46z m108 -159 c-4 -8 -17 -15 -30 -15 -17 0 -24 -6 -24 -20 0
-15 7 -20 26 -20 31 0 28 -23 -4 -28 -14 -2 -22 -11 -22 -23 0 -14 7 -19 30
-19 20 0 30 -5 30 -15 0 -10 -10 -15 -34 -15 -38 0 -35 -7 -50 128 l-4 42 44
0 c34 0 42 -3 38 -15z m120 -72 c-7 -43 -13 -79 -13 -81 -1 -2 -11 -2 -23 0
-18 2 -24 11 -26 37 -5 51 5 81 28 81 13 0 20 7 20 20 0 11 6 20 13 20 11 0
11 -13 1 -77z m-397 -52 c20 -60 23 -75 12 -82 -20 -12 -23 -11 -47 14 -30 32
-37 70 -17 91 10 10 15 25 12 37 -3 11 -1 19 4 17 6 -2 22 -36 36 -77z m458
22 c-8 -65 5 -63 24 5 6 23 16 42 22 42 6 0 9 -6 7 -12 -2 -7 -10 -34 -17 -60
-11 -41 -17 -48 -39 -48 -24 0 -25 1 -19 55 5 53 12 75 24 75 3 0 2 -26 -2
-57z m-366 33 c16 -19 23 -88 11 -106 -16 -23 -60 31 -60 74 0 47 24 62 49 32z
m511 -41 c0 -28 -20 -35 -20 -7 -1 15 -2 15 -15 -2 -8 -11 -15 -31 -15 -44 0
-21 2 -23 16 -11 14 12 16 11 13 -6 -3 -12 -14 -21 -27 -23 -23 -3 -26 3 -22
47 5 57 70 100 70 46z m-737 -72 c51 -90 42 -103 -11 -14 -44 73 -47 81 -34
81 4 0 24 -30 45 -67z m828 41 c11 -14 9 -23 -11 -62 -28 -52 -38 -58 -64 -39
-15 11 -16 17 -5 40 9 20 19 27 41 27 15 0 28 5 28 11 0 6 -9 8 -20 4 -22 -7
-29 20 -7 28 20 9 24 8 38 -9z m97 -81 c-2 -9 -9 -18 -16 -21 -7 -2 -10 2 -6
12 11 28 -21 18 -39 -13 -17 -30 -14 -43 9 -34 8 3 14 0 14 -6 0 -7 -8 -14
-17 -18 -10 -3 -26 -13 -36 -21 -22 -20 -34 -8 -13 13 9 9 14 21 11 26 -7 11
11 46 38 76 16 18 24 20 39 12 11 -6 18 -18 16 -26z m-958 -19 c32 -45 32 -47
15 -60 -41 -30 -76 -1 -58 47 9 23 9 29 -3 29 -8 0 -14 -7 -14 -15 0 -8 -4
-15 -10 -15 -14 0 -13 33 2 48 20 20 33 14 68 -34z m625 9 c36 -9 65 -21 65
-26 0 -4 5 -5 11 -1 6 3 14 3 18 -2 3 -5 28 -20 56 -34 58 -30 202 -168 233
-225 80 -146 102 -228 102 -384 0 -130 -31 -248 -89 -333 -17 -25 -31 -50 -31
-54 -1 -14 -37 -54 -49 -54 -6 0 -11 -5 -11 -12 0 -25 -161 -148 -194 -148 -8
0 -21 -6 -28 -13 -32 -32 -140 -52 -273 -52 -128 1 -255 24 -255 46 0 5 -7 9
-16 9 -58 0 -274 182 -274 230 0 5 -9 15 -20 23 -30 21 -77 146 -91 240 -7 45
-16 86 -21 92 -10 12 -11 95 0 95 4 0 14 35 21 78 13 79 66 222 82 222 5 0 15
15 23 33 12 29 138 167 152 167 3 0 18 9 32 19 53 37 148 79 207 89 33 7 69
14 80 16 39 9 205 -4 270 -21z m431 -7 c18 -18 18 -26 0 -26 -17 0 -38 24 -29
33 9 10 13 9 29 -7z m-23 -38 c9 -13 3 -25 -30 -61 -41 -44 -42 -45 -59 -26
-14 16 -15 23 -5 45 10 22 16 25 41 21 16 -4 32 -2 35 3 3 6 -3 10 -14 10 -21
0 -27 11 -14 24 11 11 35 3 46 -16z m-1119 -37 c29 -34 34 -46 25 -57 -6 -8
-18 -14 -25 -14 -18 0 -84 64 -84 81 0 7 17 -4 39 -25 22 -21 41 -33 45 -28 3
6 -7 24 -24 40 -28 29 -41 58 -21 50 5 -1 25 -23 45 -47z m-115 -44 c20 -18
47 -40 60 -49 24 -17 24 -18 6 -38 -23 -26 -27 -25 -65 7 -26 22 -31 31 -26
55 4 20 1 30 -9 34 -15 6 -21 24 -9 24 4 0 23 -15 43 -33z m1305 -3 c13 -35
-52 -95 -88 -81 -26 10 -18 43 15 71 35 30 64 33 73 10z m-1319 -120 l44 -25
-21 -24 c-16 -19 -25 -22 -39 -14 -19 10 -23 20 -19 53 1 11 -3 16 -12 14 -7
-3 -12 -12 -10 -22 3 -18 -13 -22 -23 -6 -10 16 5 50 21 50 9 0 35 -12 59 -26z
m1451 -5 c15 -30 15 -33 -3 -49 -31 -30 -59 -33 -82 -9 -19 21 -21 21 -47 4
-14 -9 -25 -12 -23 -6 3 8 124 89 136 91 1 0 10 -14 19 -31z m-1553 -43 c3 3
15 -4 26 -15 12 -12 28 -22 36 -22 31 -3 35 -4 36 -14 0 -17 -31 -17 -56 -1
-13 9 -30 16 -36 16 -15 0 -49 29 -49 42 0 5 8 4 19 -1 10 -6 21 -8 24 -5z
m-3 -85 c0 -5 -6 -11 -12 -14 -7 -2 -10 -8 -6 -12 4 -4 14 0 23 9 21 21 31 20
56 -5 20 -20 20 -22 5 -37 -14 -14 -20 -14 -37 -4 -11 7 -24 10 -28 7 -16 -9
-53 29 -46 48 7 17 45 24 45 8z m1564 -7 c3 -9 6 -20 6 -25 0 -12 -28 -11 -32
1 -2 7 -19 5 -47 -5 -39 -13 -63 -14 -50 -1 4 5 99 43 110 45 4 1 10 -6 13
-15z m6 -69 c30 -36 -25 -76 -85 -61 -36 9 -29 36 15 58 43 22 54 22 70 3z
m-1656 -41 c-2 -29 12 -47 28 -38 4 3 8 16 8 30 0 13 4 24 8 24 17 0 21 -12
12 -36 -9 -22 -7 -24 20 -24 22 0 29 5 32 22 2 12 9 23 16 26 10 3 12 -5 6
-34 -4 -22 -7 -40 -8 -41 -1 -1 -36 3 -79 9 -83 12 -87 16 -71 76 9 32 29 21
28 -14z m1681 -54 c3 -5 15 -10 26 -10 10 0 19 -7 19 -15 0 -8 -7 -15 -15 -15
-8 0 -15 6 -15 13 0 8 -3 8 -8 1 -9 -13 -122 -18 -122 -4 0 5 16 10 35 10 19
0 40 7 47 15 15 17 25 19 33 5z m5 -75 c0 -12 -13 -15 -60 -15 -69 0 -82 17
-17 23 23 2 50 4 60 5 9 1 17 -5 17 -13z m40 5 c0 -5 -7 -10 -16 -10 -8 0 -12
5 -9 10 3 6 10 10 16 10 5 0 9 -4 9 -10z m-1620 -61 c18 -33 -4 -51 -59 -47
-49 3 -65 24 -41 53 19 23 87 19 100 -6z m1500 12 c0 -5 -6 -11 -12 -14 -7 -2
-9 -8 -5 -13 5 -5 16 2 26 15 23 30 65 26 69 -7 2 -13 -3 -25 -13 -28 -22 -9
-30 2 -15 21 7 8 8 15 2 15 -5 0 -16 -10 -24 -22 -11 -16 -20 -20 -41 -14 -37
9 -37 56 0 56 7 0 13 -4 13 -9z m-1585 -91 c3 -5 26 -10 51 -10 24 0 44 -4 44
-10 0 -5 -17 -10 -37 -10 -21 0 -47 -3 -58 -6 -16 -4 -21 0 -23 20 -2 26 11
35 23 16z m1575 -5 c0 -8 -6 -15 -12 -16 -10 0 -10 -2 0 -6 7 -3 22 3 32 12
12 11 26 14 39 10 25 -8 28 -40 5 -49 -23 -9 -29 0 -14 19 18 21 0 19 -24 -4
-36 -33 -88 3 -54 37 16 16 28 15 28 -3z m-1479 -59 c-7 -8 -27 -18 -44 -22
-18 -3 -36 -9 -42 -13 -16 -11 -48 -7 -52 7 -3 6 2 12 11 12 9 0 16 4 16 10 0
5 13 7 29 4 17 -4 40 0 57 9 33 17 43 14 25 -7z m1537 -50 c12 -13 -6 -14 -48
-5 -67 16 -72 18 -66 28 6 9 101 -11 114 -23z m42 -17 c0 -5 -7 -9 -15 -9 -15
0 -20 12 -9 23 8 8 24 -1 24 -14z m-1560 3 c0 -4 -21 -14 -46 -21 -30 -9 -42
-17 -35 -24 6 -6 23 -4 51 7 31 12 41 13 38 4 -3 -7 -26 -22 -52 -33 -41 -17
-49 -17 -57 -5 -18 29 -5 53 36 66 49 15 65 16 65 6z m1488 -25 c28 -25 28
-44 1 -52 -42 -14 -115 27 -104 57 12 32 64 29 103 -5z m-1444 -83 c12 -31
-63 -84 -99 -70 -23 9 -18 42 10 60 24 16 26 16 37 -8 11 -26 28 -26 28 0 0 8
-4 12 -10 9 -5 -3 -10 1 -10 9 0 21 36 20 44 0z m1379 -8 c33 -13 46 -23 42
-33 -3 -8 -5 -18 -5 -23 0 -21 -37 -18 -79 7 -49 28 -43 45 8 19 33 -18 51
-20 51 -8 0 5 -18 17 -40 27 -22 10 -40 22 -40 27 0 5 3 8 8 6 4 -1 29 -12 55
-22z m-61 -90 c4 -6 5 -21 1 -33 -3 -15 -1 -23 7 -23 7 0 10 7 7 15 -9 23 11
28 22 6 8 -15 7 -23 -5 -35 -17 -17 -19 -16 -75 24 -34 24 -35 27 -21 48 15
23 49 22 64 -2z m-1257 -16 c7 -21 -14 -55 -49 -82 -55 -41 -104 -25 -91 30 8
39 24 42 22 5 -3 -36 23 -41 63 -13 33 24 41 62 13 59 -28 -2 -35 0 -28 11 12
19 63 11 70 -10z m1230 -107 c26 -24 43 -43 39 -43 -14 0 -124 91 -124 101 0
13 24 -4 85 -58z m-1028 -45 c27 -25 33 -81 8 -72 -8 4 -15 17 -15 30 0 13 -9
28 -21 34 -25 14 -64 -8 -81 -46 -17 -37 0 -59 46 -60 47 -1 55 -10 23 -25
-48 -22 -107 20 -107 76 0 8 14 30 31 50 37 42 80 47 116 13z m897 -72 l42
-44 -30 -24 c-45 -35 -52 -39 -70 -32 -24 9 -20 59 6 76 12 8 18 19 14 26 -12
20 -27 13 -37 -18 -11 -30 -29 -32 -29 -4 0 14 43 64 55 64 3 0 25 -20 49 -44z
m-233 -46 c30 17 58 0 70 -43 9 -34 8 -42 -8 -58 -10 -10 -31 -19 -48 -21 -29
-3 -30 -1 -51 72 -16 54 -18 77 -10 82 6 5 15 -2 21 -16 8 -18 14 -22 26 -16z
m-93 12 c2 -7 -3 -12 -12 -12 -9 0 -16 7 -16 16 0 17 22 14 28 -4z m-453 -19
c-14 -57 -11 -78 10 -78 14 0 22 11 31 40 6 23 18 41 27 43 15 3 15 -1 1 -50
-23 -80 -23 -80 -36 -72 -7 5 -21 9 -31 9 -38 3 -49 27 -36 83 8 33 18 52 27
52 11 0 13 -7 7 -27z m295 12 c0 -8 -7 -15 -15 -15 -8 0 -15 7 -15 15 0 8 7
15 15 15 8 0 15 -7 15 -15z m76 -12 c8 -12 11 -33 7 -61 -4 -32 -2 -47 11 -61
13 -15 14 -20 4 -24 -29 -10 -48 13 -48 56 0 24 -6 49 -12 56 -10 11 -10 14 0
18 6 3 12 11 12 19 0 19 10 18 26 -3z m-148 -30 c2 -8 -5 -13 -17 -13 -16 0
-21 -9 -27 -45 -4 -30 -11 -45 -21 -45 -11 0 -14 6 -9 23 3 12 6 39 6 60 0 37
1 38 32 35 17 -2 33 -9 36 -15z m67 -53 c0 -42 -4 -65 -12 -67 -10 -4 -13 14
-13 67 0 53 3 71 13 68 8 -3 12 -26 12 -68z m169 48 c14 -68 14 -98 2 -98 -16
0 -26 31 -26 83 0 40 17 51 24 15z"/>
<path d="M1195 1930 c-7 -32 1 -54 16 -45 12 8 12 75 0 75 -5 0 -12 -13 -16
-30z"/>
<path d="M810 1879 c0 -14 7 -34 15 -45 14 -18 14 -18 15 7 0 14 -7 34 -15 45
-14 18 -14 18 -15 -7z"/>
<path d="M910 1925 c0 -8 5 -15 10 -15 6 0 10 7 10 15 0 8 -4 15 -10 15 -5 0
-10 -7 -10 -15z"/>
<path d="M920 1881 c0 -17 18 -21 24 -6 3 9 0 15 -9 15 -8 0 -15 -4 -15 -9z"/>
<path d="M1475 1800 c4 -6 11 -8 16 -5 14 9 11 15 -7 15 -8 0 -12 -5 -9 -10z"/>
<path d="M655 1747 c-4 -10 -5 -21 -1 -24 10 -10 18 4 13 24 -4 17 -4 17 -12
0z"/>
<path d="M980 1671 c-36 -9 -75 -22 -87 -29 l-23 -13 0 -529 0 -529 28 -15
c31 -16 89 -33 145 -41 l37 -6 0 100 0 101 -36 0 c-20 0 -54 5 -75 12 l-39 11
0 149 0 148 70 0 70 0 0 101 0 102 -70 -5 -70 -5 0 123 0 123 38 10 c20 6 54
11 75 11 l37 0 0 100 c0 115 7 109 -100 81z"/>
<path d="M1185 1100 c0 -519 2 -589 15 -586 8 3 31 8 50 11 19 4 59 16 88 27
l52 19 0 90 c0 49 -3 89 -7 89 -5 0 -35 -7 -68 -15 -33 -8 -63 -14 -67 -15 -5
0 -8 70 -8 155 l0 155 70 0 70 0 0 95 0 95 -39 0 c-21 0 -53 3 -70 6 l-31 7 0
125 0 125 33 -7 c44 -10 57 -13 90 -21 l28 -7 -3 93 -3 93 -85 27 c-47 15 -92
28 -100 28 -13 1 -15 -71 -15 -589z"/>
<path d="M1490 1100 c0 -468 0 -470 20 -458 19 12 20 24 20 180 l0 166 33 7
c71 16 92 70 92 235 0 180 -25 245 -120 309 l-45 30 0 -469z m77 275 c26 -18
43 -72 43 -135 0 -60 -19 -95 -50 -95 l-25 0 -3 123 c-1 67 1 122 5 122 5 0
18 -7 30 -15z"/>
<path d="M666 1517 c-43 -56 -66 -141 -78 -290 -15 -179 -1 -361 36 -462 25
-69 67 -122 88 -109 43 27 74 225 44 282 -23 44 -36 32 -36 -31 0 -89 -46
-124 -69 -54 -25 77 -34 280 -18 400 8 66 34 137 49 137 20 0 37 -35 38 -77 0
-24 4 -43 9 -43 18 0 45 56 44 91 -1 49 -23 139 -41 167 -20 30 -37 28 -66
-11z"/>
<path d="M1635 1689 c-4 -6 -5 -13 -2 -16 7 -7 27 6 27 18 0 12 -17 12 -25 -2z"/>
<path d="M470 1615 c0 -16 35 -38 51 -33 11 4 -27 48 -41 48 -6 0 -10 -7 -10
-15z"/>
<path d="M1720 1625 c-28 -29 -22 -42 12 -24 27 14 39 30 32 41 -9 13 -19 9
-44 -17z"/>
<path d="M450 1500 c0 -5 5 -10 10 -10 6 0 10 5 10 10 0 6 -4 10 -10 10 -5 0
-10 -4 -10 -10z"/>
<path d="M1859 1517 c-20 -15 -13 -37 11 -37 25 0 35 19 19 35 -11 11 -17 11
-30 2z"/>
<path d="M385 1360 c-3 -5 1 -10 9 -10 9 0 16 5 16 10 0 6 -4 10 -9 10 -6 0
-13 -4 -16 -10z"/>
<path d="M1880 1313 c-29 -11 -42 -26 -29 -33 15 -10 69 11 69 27 0 13 -14 15
-40 6z"/>
<path d="M297 1093 c-15 -15 -5 -23 27 -23 19 0 37 4 40 9 10 16 -52 29 -67
14z"/>
<path d="M1820 860 c0 -12 33 -30 54 -30 21 0 21 26 0 34 -24 9 -54 7 -54 -4z"/>
<path d="M365 750 c-8 -13 -1 -24 14 -19 6 3 7 10 2 18 -6 10 -10 10 -16 1z"/>
<path d="M1730 675 c0 -20 17 -28 23 -11 3 8 -1 17 -9 20 -8 3 -14 -1 -14 -9z"/>
<path d="M1576 401 c-21 -23 -6 -36 20 -16 14 10 16 17 8 25 -7 7 -15 5 -28
-9z"/>
<path d="M1375 360 c-8 -26 12 -62 33 -58 21 4 28 44 12 64 -17 20 -38 18 -45
-6z"/>
</g>
</svg>
