<?xml version="1.0" standalone="no"?>
<!DOCTYPE svg PUBLIC "-//W3C//DTD SVG 20010904//EN"
 "http://www.w3.org/TR/2001/REC-SVG-20010904/DTD/svg10.dtd">
<svg version="1.0" xmlns="http://www.w3.org/2000/svg"
 width="237.000000pt" height="213.000000pt" viewBox="0 0 237.000000 213.000000"
 preserveAspectRatio="xMidYMid meet">

<g transform="translate(0.000000,213.000000) scale(0.100000,-0.100000)"
fill="#000000" stroke="none">
<path d="M980 1070 l0 -330 65 0 65 0 0 95 c0 109 4 115 71 94 54 -18 77 -49
90 -126 l11 -63 64 0 64 0 0 48 c0 107 -54 208 -128 239 -30 12 -32 16 -20 31
7 9 46 56 86 105 39 48 72 90 72 92 0 3 -36 5 -79 5 l-79 0 -74 -92 -73 -92
-3 162 -2 162 -65 0 -65 0 0 -330z"/>
<path d="M2113 1392 l-63 -3 0 -218 c0 -249 9 -298 66 -361 34 -37 91 -66 144
-72 24 -3 25 -1 28 64 l3 67 -36 15 c-47 20 -65 64 -65 161 l0 75 50 0 50 0 0
70 0 70 -50 0 -50 0 0 64 c0 36 -3 66 -7 68 -5 2 -36 2 -70 0z"/>
<path d="M860 1273 c-79 -13 -133 -50 -168 -116 -25 -50 -27 -59 -30 -234 l-4
-183 70 0 70 0 4 163 c3 182 13 212 68 224 30 5 30 6 30 79 0 41 -3 73 -7 73
-5 -1 -19 -4 -33 -6z"/>
<path d="M204 1251 c-48 -22 -105 -78 -131 -129 -13 -27 -18 -60 -18 -122 0
-74 3 -91 27 -130 67 -114 187 -162 313 -126 77 23 155 98 175 171 39 140 -13
270 -132 329 -65 33 -170 36 -234 7z m159 -122 c71 -37 99 -105 72 -175 -20
-54 -66 -84 -125 -84 -36 0 -48 6 -81 39 -36 35 -39 43 -39 93 0 60 16 90 64
119 35 21 77 24 109 8z"/>
<path d="M1502 1073 c3 -171 6 -192 25 -230 80 -151 335 -151 416 0 20 38 22
58 25 230 l4 187 -71 0 -71 0 0 -164 c0 -160 -1 -166 -24 -193 -20 -23 -32
-28 -71 -28 -39 0 -51 5 -71 28 -23 27 -24 33 -24 193 l0 164 -71 0 -71 0 4
-187z"/>
</g>
</svg>
